<svg width="800" height="800" viewBox="0 0 800 800" fill="none" xmlns="http://www.w3.org/2000/svg">
<circle cx="397" cy="410" r="19" fill="#1E293B"/>
<path d="M391.044 413V412.489H391.534V408.611H391.044V408.1H392.633V408.611H392.143V412.489H392.633V413H391.044ZM395.254 413L394.589 411.705L393.889 413H393.231L394.246 411.194L393.315 409.5H394.001L394.603 410.655L395.212 409.5H395.863L394.918 411.166L395.954 413H395.254ZM396.723 408.73V408.1H397.388V408.73H396.723ZM396.758 413V409.5H397.353V413H396.758ZM400.966 409.99C400.966 410.368 400.865 410.648 400.665 410.83C400.464 411.007 400.168 411.096 399.776 411.096H399.118V413H398.509V408.1H399.762C400.158 408.1 400.457 408.189 400.658 408.366C400.863 408.539 400.966 408.814 400.966 409.192V409.99ZM400.357 409.129C400.357 408.952 400.315 408.823 400.231 408.744C400.151 408.665 400.023 408.625 399.846 408.625H399.118V410.571H399.846C400.023 410.571 400.151 410.531 400.231 410.452C400.315 410.368 400.357 410.237 400.357 410.06V409.129ZM403.137 413C402.731 413 402.418 412.902 402.199 412.706C401.984 412.505 401.877 412.207 401.877 411.81V409.29C401.877 408.893 401.984 408.597 402.199 408.401C402.418 408.2 402.731 408.1 403.137 408.1H403.991V408.632H403.067C402.894 408.632 402.754 408.683 402.647 408.786C402.54 408.889 402.486 409.012 402.486 409.157V411.943C402.486 412.088 402.54 412.211 402.647 412.314C402.754 412.417 402.894 412.468 403.067 412.468H403.991V413H403.137Z" fill="white"/>
<path d="M411.463 406.209C411.759 406.209 412 405.969 412 405.672C412 405.376 411.759 405.135 411.463 405.135H409.851V402.991H411.463C411.759 402.991 412 402.75 412 402.454C412 402.157 411.759 401.916 411.463 401.916H409.851V400.834C409.851 399.353 408.646 398.148 407.165 398.148H406.084V396.537C406.084 396.241 405.843 396 405.546 396C405.25 396 405.009 396.241 405.009 396.537V398.148H402.865V396.537C402.865 396.241 402.624 396 402.328 396C402.031 396 401.791 396.241 401.791 396.537V398.148H399.646V396.537C399.646 396.241 399.406 396 399.109 396C398.813 396 398.572 396.241 398.572 396.537V398.148H396.428V396.537C396.428 396.241 396.187 396 395.891 396C395.594 396 395.353 396.241 395.353 396.537V398.148H393.209V396.537C393.209 396.241 392.969 396 392.672 396C392.375 396 392.135 396.241 392.135 396.537V398.148H389.991V396.537C389.991 396.241 389.75 396 389.453 396C389.157 396 388.916 396.241 388.916 396.537V398.148H387.833C386.352 398.148 385.148 399.353 385.148 400.834V401.916H383.537C383.241 401.916 383 402.157 383 402.454C383 402.75 383.241 402.991 383.537 402.991H385.148V405.135H383.537C383.241 405.135 383 405.376 383 405.672C383 405.969 383.241 406.209 383.537 406.209H385.148V408.354H383.537C383.241 408.354 383 408.594 383 408.891C383 409.187 383.241 409.428 383.537 409.428H385.148V411.572H383.537C383.241 411.572 383 411.813 383 412.109C383 412.406 383.241 412.646 383.537 412.646H385.148V414.791H383.537C383.241 414.791 383 415.031 383 415.328C383 415.625 383.241 415.865 383.537 415.865H385.148V418.009H383.537C383.241 418.009 383 418.25 383 418.547C383 418.843 383.241 419.084 383.537 419.084H385.148V420.166C385.148 421.647 386.352 422.852 387.833 422.852H388.916V424.463C388.916 424.759 389.157 425 389.453 425C389.75 425 389.991 424.759 389.991 424.463V422.852H392.135V424.463C392.135 424.759 392.375 425 392.672 425C392.969 425 393.209 424.759 393.209 424.463V422.852H395.353V424.463C395.353 424.759 395.594 425 395.891 425C396.187 425 396.428 424.759 396.428 424.463V422.852H398.572V424.463C398.572 424.759 398.813 425 399.109 425C399.406 425 399.646 424.759 399.646 424.463V422.852H401.791V424.463C401.791 424.759 402.031 425 402.328 425C402.624 425 402.865 424.759 402.865 424.463V422.852H405.009V424.463C405.009 424.759 405.25 425 405.546 425C405.843 425 406.084 424.759 406.084 424.463V422.852H407.165C408.646 422.852 409.851 421.647 409.851 420.166V419.084H411.463C411.759 419.084 412 418.843 412 418.547C412 418.25 411.759 418.009 411.463 418.009H409.851V415.865H411.463C411.759 415.865 412 415.625 412 415.328C412 415.031 411.759 414.791 411.463 414.791H409.851V412.646H411.463C411.759 412.646 412 412.406 412 412.109C412 411.813 411.759 411.572 411.463 411.572H409.851V409.428H411.463C411.759 409.428 412 409.187 412 408.891C412 408.594 411.759 408.354 411.463 408.354H409.851V406.209H411.463ZM408.777 420.166C408.777 421.054 408.054 421.777 407.165 421.777H387.833C386.945 421.777 386.222 421.054 386.222 420.166V400.834C386.222 399.946 386.945 399.223 387.833 399.223H407.165C408.054 399.223 408.777 399.946 408.777 400.834V420.166Z" fill="#F8F6F6"/>
<path d="M406.083 400.842H388.916C388.324 400.842 387.842 401.324 387.842 401.917V419.083C387.842 419.676 388.324 420.158 388.916 420.158H406.083C406.675 420.158 407.157 419.676 407.157 419.083V401.917C407.157 401.324 406.675 400.842 406.083 400.842ZM388.916 419.083V401.917H406.083L406.083 419.083H388.916V419.083Z" fill="#F8F6F6"/>
</svg>
